<svg width="171" height="144" viewBox="0 0 171 144" fill="none" xmlns="http://www.w3.org/2000/svg">
<path d="M155.089 18.7852H16.5259C8.08817 18.7852 1.24808 25.6253 1.24808 34.0629V120.433C1.24808 128.871 8.08817 135.711 16.5259 135.711H155.089C163.526 135.711 170.366 128.871 170.366 120.433V34.0629C170.366 25.6253 163.526 18.7852 155.089 18.7852Z" stroke="black" stroke-width="0.763889"/>
<path d="M1.32828 32.2949H170.303" stroke="black" stroke-width="0.763889"/>
<path d="M138.228 29.005C139.951 29.005 141.348 27.6593 141.348 25.9992C141.348 24.3391 139.951 22.9934 138.228 22.9934C136.505 22.9934 135.108 24.3391 135.108 25.9992C135.108 27.6593 136.505 29.005 138.228 29.005Z" fill="#F78400" stroke="black" stroke-width="0.763889"/>
<path d="M156.948 29.005C158.671 29.005 160.068 27.6593 160.068 25.9992C160.068 24.3391 158.671 22.9934 156.948 22.9934C155.225 22.9934 153.828 24.3391 153.828 25.9992C153.828 27.6593 155.225 29.005 156.948 29.005Z" fill="#FCEB64" stroke="black" stroke-width="0.763889"/>
<path d="M147.588 29.005C149.311 29.005 150.708 27.6593 150.708 25.9992C150.708 24.3391 149.311 22.9934 147.588 22.9934C145.864 22.9934 144.467 24.3391 144.467 25.9992C144.467 27.6593 145.864 29.005 147.588 29.005Z" fill="white" stroke="black" stroke-width="0.763889"/>
<path d="M108.361 115.77H93.827C90.1899 115.77 87.2415 118.719 87.2415 122.356V135.873C87.2415 139.51 90.1899 142.459 93.827 142.459H108.361C111.998 142.459 114.946 139.51 114.946 135.873V122.356C114.946 118.719 111.998 115.77 108.361 115.77Z" fill="#001749" stroke="#001749" stroke-width="0.763889"/>
<path d="M107.353 115.77H92.8196C89.1825 115.77 86.2341 118.719 86.2341 122.356V135.873C86.2341 139.51 89.1825 142.459 92.8196 142.459H107.353C110.99 142.459 113.939 139.51 113.939 135.873V122.356C113.939 118.719 110.99 115.77 107.353 115.77Z" fill="#1C4396" stroke="#001749" stroke-width="0.763889"/>
<path d="M105.804 126.001H100.175L99.8437 124.382C99.7654 123.996 99.413 123.714 99.0025 123.714H94.4201C93.9512 123.714 93.5598 124.081 93.5598 124.542V126.632V132.252V134.529H106.469V126.622C106.469 126.283 106.175 126.001 105.804 126.001Z" fill="white" stroke="#001749" stroke-width="0.763889" stroke-miterlimit="10" stroke-linecap="round" stroke-linejoin="round"/>
<path d="M106.517 134.539H93.5693L96.452 128.213C96.5599 127.978 96.8034 127.818 97.0775 127.818H108.53C109.029 127.818 109.361 128.307 109.156 128.74L106.517 134.539Z" fill="white" stroke="#001749" stroke-width="0.763889" stroke-miterlimit="10" stroke-linecap="round" stroke-linejoin="round"/>
<path d="M138.92 115.77H124.386C120.749 115.77 117.801 118.719 117.801 122.356V135.873C117.801 139.51 120.749 142.459 124.386 142.459H138.92C142.557 142.459 145.506 139.51 145.506 135.873V122.356C145.506 118.719 142.557 115.77 138.92 115.77Z" fill="#001749" stroke="#001749" stroke-width="0.763889"/>
<path d="M137.913 115.77H123.379C119.742 115.77 116.793 118.719 116.793 122.356V135.873C116.793 139.51 119.742 142.459 123.379 142.459H137.913C141.55 142.459 144.498 139.51 144.498 135.873V122.356C144.498 118.719 141.55 115.77 137.913 115.77Z" fill="white" stroke="#001749" stroke-width="0.763889"/>
<path d="M130.826 134.873C135.313 134.873 138.95 134.053 138.95 133.043C138.95 132.032 135.313 131.213 130.826 131.213C126.339 131.213 122.702 132.032 122.702 133.043C122.702 134.053 126.339 134.873 130.826 134.873Z" fill="#1C4396" stroke="#001749" stroke-width="0.763889"/>
<path d="M130.826 131.213C135.313 131.213 138.95 130.393 138.95 129.383C138.95 128.372 135.313 127.553 130.826 127.553C126.339 127.553 122.702 128.372 122.702 129.383C122.702 130.393 126.339 131.213 130.826 131.213Z" fill="#1C4396" stroke="#001749" stroke-width="0.763889"/>
<path d="M130.826 127.553C135.313 127.553 138.95 126.733 138.95 125.723C138.95 124.712 135.313 123.893 130.826 123.893C126.339 123.893 122.702 124.712 122.702 125.723C122.702 126.733 126.339 127.553 130.826 127.553Z" fill="#1C4396" stroke="#001749" stroke-width="0.763889"/>
<path d="M24.4948 122.482C24.4948 118.843 27.4446 115.893 31.0834 115.893H77.1228C80.7598 115.893 83.7085 118.842 83.7085 122.479V136.089C83.7085 139.726 80.7598 142.674 77.1228 142.674H31.0834C27.4446 142.674 24.4948 139.725 24.4948 136.086V122.482Z" fill="#001749" stroke="#001749" stroke-width="0.763889"/>
<path d="M24.4948 122.482C24.4948 118.843 27.4446 115.893 31.0834 115.893H76.039C79.6761 115.893 82.6247 118.842 82.6247 122.479V136.089C82.6247 139.726 79.6761 142.674 76.039 142.674H31.0834C27.4446 142.674 24.4948 139.725 24.4948 136.086V122.482Z" fill="#F78400" stroke="#001749" stroke-width="0.763889"/>
<path d="M57.9368 135.785C57.8537 135.785 57.7859 135.718 57.7859 135.635V124.735C57.7859 124.664 57.8365 124.602 57.9072 124.587L59.751 124.213C59.8436 124.195 59.9315 124.266 59.9315 124.361V135.635C59.9315 135.718 59.8637 135.785 59.7806 135.785H57.9368Z" fill="white"/>
<path d="M33.2775 136.018C32.4955 136.018 31.7973 135.832 31.183 135.459C30.5685 135.086 30.0826 134.576 29.7252 133.93C29.3677 133.282 29.1889 132.548 29.1889 131.725C29.1889 130.903 29.3677 130.174 29.7252 129.538C30.0826 128.891 30.5685 128.387 31.183 128.025C31.7973 127.653 32.4955 127.465 33.2775 127.465C33.9031 127.465 34.4504 127.581 34.9196 127.811C35.2395 127.968 35.5178 128.168 35.7547 128.412C35.8574 128.518 36.0591 128.45 36.0591 128.303V124.537C36.0591 124.465 36.1095 124.404 36.1797 124.39L38.0234 124.016C38.1167 123.996 38.2039 124.068 38.2039 124.164V135.671C38.2039 135.754 38.1365 135.821 38.0533 135.821H36.4169C36.3452 135.821 36.2835 135.77 36.2693 135.7L36.1258 134.985C36.1001 134.857 35.9314 134.818 35.8432 134.914C35.6082 135.17 35.3227 135.401 34.9867 135.607C34.551 135.881 33.9813 136.018 33.2775 136.018ZM33.7299 134.176C34.4225 134.176 34.9867 133.951 35.4223 133.502C35.8691 133.041 36.0926 132.455 36.0926 131.742C36.0926 131.029 35.8691 130.448 35.4223 129.999C34.9867 129.538 34.4225 129.307 33.7299 129.307C33.0485 129.307 32.4843 129.533 32.0376 129.982C31.5907 130.431 31.3673 131.013 31.3673 131.725C31.3673 132.438 31.5907 133.025 32.0376 133.485C32.4843 133.946 33.0485 134.176 33.7299 134.176Z" fill="white"/>
<path d="M43.4334 136.019C42.5959 136.019 41.8531 135.844 41.2051 135.493C40.5572 135.142 40.049 134.649 39.6803 134.013C39.3117 133.377 39.1273 132.643 39.1273 131.809C39.1273 130.965 39.3061 130.213 39.6636 129.556C40.0321 128.898 40.5349 128.388 41.1716 128.026C41.8196 127.653 42.5788 127.467 43.4506 127.467C44.266 127.467 44.9869 127.642 45.6124 127.993C46.2378 128.344 46.7238 128.826 47.0695 129.441C47.4275 130.044 47.6061 130.718 47.6061 131.463C47.6061 131.584 47.6004 131.711 47.5889 131.842C47.5889 131.93 47.587 132.021 47.5813 132.114C47.5775 132.193 47.5116 132.253 47.4333 132.253H41.4169C41.3296 132.253 41.2602 132.328 41.2709 132.413C41.3397 132.974 41.558 133.419 41.9256 133.749C42.339 134.111 42.8356 134.293 43.4171 134.293C43.8525 134.293 44.2154 134.199 44.5057 134.013C44.7797 133.834 44.9888 133.61 45.133 133.342C45.1607 133.29 45.2132 133.257 45.2715 133.257H47.1516C47.2528 133.257 47.3254 133.354 47.291 133.449C47.1306 133.89 46.889 134.296 46.5672 134.671C46.2101 135.087 45.7632 135.417 45.2266 135.657C44.7014 135.899 44.1037 136.019 43.4334 136.019ZM43.4506 129.177C42.9254 129.177 42.4619 129.325 42.0597 129.621C41.6988 129.877 41.4549 130.256 41.3279 130.76C41.3048 130.851 41.3761 130.937 41.4705 130.937H45.2677C45.3545 130.937 45.4233 130.864 45.4128 130.778C45.3517 130.315 45.1559 129.94 44.8246 129.654C44.456 129.336 43.9977 129.177 43.4506 129.177Z" fill="white"/>
<path d="M52.7643 136.02C51.9259 136.02 51.183 135.844 50.5356 135.493C49.8873 135.142 49.3793 134.649 49.0107 134.013C48.6421 133.377 48.4578 132.643 48.4578 131.809C48.4578 130.965 48.6364 130.213 48.9935 129.556C49.363 128.898 49.8653 128.388 50.5022 128.026C51.1496 127.653 51.9096 127.467 52.7805 127.467C53.5959 127.467 54.3169 127.643 54.9423 127.993C55.5677 128.344 56.0537 128.827 56.4004 129.441C56.7575 130.044 56.936 130.719 56.936 131.463C56.936 131.585 56.9313 131.711 56.9198 131.842C56.9198 131.93 56.9169 132.021 56.9122 132.115C56.9083 132.193 56.8425 132.253 56.7642 132.253H50.7476C50.6597 132.253 50.591 132.328 50.6015 132.414C50.6702 132.974 50.8879 133.419 51.2556 133.75C51.669 134.112 52.1665 134.293 52.7471 134.293C53.1834 134.293 53.5463 134.199 53.8366 134.013C54.1097 133.834 54.3188 133.61 54.4639 133.342C54.4916 133.29 54.5441 133.257 54.6024 133.257H56.4825C56.5827 133.257 56.6553 133.354 56.6209 133.449C56.4605 133.89 56.2199 134.297 55.8971 134.671C55.54 135.087 55.0932 135.417 54.5575 135.658C54.0323 135.899 53.4346 136.02 52.7643 136.02ZM52.7805 129.177C52.2563 129.177 51.7922 129.325 51.3902 129.621C51.0293 129.877 50.7848 130.257 50.6578 130.76C50.6349 130.851 50.7065 130.937 50.8011 130.937H54.5976C54.6845 130.937 54.7542 130.864 54.7427 130.778C54.6826 130.315 54.4859 129.94 54.1545 129.655C53.786 129.337 53.3286 129.177 52.7805 129.177Z" fill="white"/>
<path d="M62.7416 135.787C63.5391 135.787 64.1856 135.153 64.1856 134.37C64.1856 133.587 63.5391 132.953 62.7416 132.953C61.9441 132.953 61.2976 133.587 61.2976 134.37C61.2976 135.153 61.9441 135.787 62.7416 135.787Z" fill="white"/>
<path fill-rule="evenodd" clip-rule="evenodd" d="M74.7261 122.154C77.0951 122.154 79.0153 124.074 79.0153 126.443C79.0153 128.811 77.0951 130.731 74.7261 130.731H65.8745C65.844 130.731 65.8143 130.731 65.7838 130.73C64.6819 131.354 63.1933 132.192 63.1933 132.192V129.791C62.2126 129.004 61.5853 127.797 61.5853 126.443C61.5853 124.074 63.5055 122.154 65.8745 122.154H74.7261Z" fill="#2C71F0"/>
<path d="M65.7838 130.73L65.7141 130.606L65.7475 130.587H65.7867L65.7838 130.73ZM63.1933 132.192L63.263 132.316L63.05 132.436V132.192H63.1933ZM63.1933 129.79L63.283 129.679L63.3365 129.722V129.79H63.1933ZM78.8721 126.443C78.8721 124.153 77.0158 122.297 74.7261 122.297V122.01C77.1743 122.01 79.1585 123.994 79.1585 126.443H78.8721ZM74.7261 130.588C77.0158 130.588 78.8721 128.732 78.8721 126.443H79.1585C79.1585 128.89 77.1743 130.874 74.7261 130.874V130.588ZM65.8745 130.588H74.7261V130.874H65.8745V130.588ZM65.7867 130.587C65.8163 130.588 65.8449 130.588 65.8745 130.588V130.874C65.843 130.874 65.8125 130.874 65.7809 130.873L65.7867 130.587ZM63.1933 132.192C63.1226 132.067 63.1226 132.067 63.1226 132.067L63.1236 132.066C63.1245 132.066 63.1255 132.065 63.1274 132.064C63.1302 132.063 63.1341 132.06 63.1398 132.057C63.1512 132.051 63.1675 132.042 63.1885 132.03C63.2315 132.006 63.2945 131.97 63.3728 131.926C63.5294 131.838 63.75 131.714 64.0049 131.569C64.5148 131.283 65.1622 130.917 65.7141 130.606L65.8545 130.855C65.3035 131.166 64.6552 131.532 64.1453 131.82C63.8903 131.963 63.6697 132.087 63.5131 132.176C63.4348 132.22 63.3728 132.255 63.3298 132.279C63.3079 132.291 63.2916 132.301 63.2802 132.307C63.2744 132.31 63.2706 132.312 63.2677 132.314C63.2658 132.315 63.2649 132.315 63.2649 132.316C63.2639 132.316 63.263 132.316 63.263 132.316C63.263 132.316 63.263 132.316 63.1933 132.192ZM63.3365 129.79V132.192H63.05V129.79H63.3365ZM61.7285 126.443C61.7285 127.751 62.3348 128.919 63.283 129.679L63.1035 129.902C62.0914 129.09 61.442 127.842 61.442 126.443H61.7285ZM65.8745 122.297C63.5848 122.297 61.7285 124.153 61.7285 126.443H61.442C61.442 123.994 63.4263 122.01 65.8745 122.01V122.297ZM74.7261 122.297H65.8745V122.01H74.7261V122.297Z" fill="black"/>
<path d="M65.5823 129.09V129.234H65.7256H66.964H67.1072V129.09V127.142H69.0084V129.09V129.234H69.1516H70.3986H70.5419V129.09V123.803V123.66H70.3986H69.1516H69.0084V123.803V125.707H67.1072V123.803V123.66H66.964H65.7256H65.5823V123.803V129.09ZM71.3325 129.09V129.234H71.4757H72.7142H72.8574V129.09V127.466H73.3654L74.2582 129.157L74.2983 129.234H74.3842H75.765H76.0142L75.8882 129.018L74.7948 127.144C75.3267 126.83 75.7115 126.259 75.7115 125.548C75.7115 124.418 74.8082 123.66 73.6242 123.66H71.4757H71.3325V123.803V129.09ZM72.8574 126.16V124.966H73.4991C73.7139 124.966 73.8772 125.029 73.9842 125.127C74.0911 125.223 74.1551 125.365 74.1551 125.548C74.1551 125.759 74.0844 125.907 73.9775 126.003C73.8696 126.103 73.7101 126.16 73.5144 126.16H72.8574Z" fill="white" stroke="#001749" stroke-width="0.286458"/>
<path d="M76.8369 29.4631H62.3032C58.6661 29.4631 55.7177 32.4116 55.7177 36.0487V49.566C55.7177 53.2031 58.6661 56.1516 62.3032 56.1516H76.8369C80.474 56.1516 83.4225 53.2031 83.4225 49.566V36.0487C83.4225 32.4116 80.474 29.4631 76.8369 29.4631Z" fill="#001749" stroke="#001749" stroke-width="0.763889"/>
<path d="M75.8305 29.4631H61.2968C57.6597 29.4631 54.7112 32.4116 54.7112 36.0487V49.566C54.7112 53.2031 57.6597 56.1516 61.2968 56.1516H75.8305C79.4676 56.1516 82.4161 53.2031 82.4161 49.566V36.0487C82.4161 32.4116 79.4676 29.4631 75.8305 29.4631Z" fill="#F78400" stroke="#001749" stroke-width="0.763889"/>
<path d="M74.2802 39.6944H68.6522L68.3199 38.0754C68.2416 37.6894 67.8902 37.407 67.4796 37.407H62.8963C62.4275 37.407 62.0369 37.7741 62.0369 38.2354V40.3251V45.9448V48.2228H74.9447V40.3157C74.9447 39.9768 74.6516 39.6944 74.2802 39.6944Z" fill="white" stroke="#001749" stroke-width="0.763889" stroke-miterlimit="10" stroke-linecap="round" stroke-linejoin="round"/>
<path d="M74.9935 48.2322H62.0455L64.9283 41.9065C65.0362 41.6712 65.2806 41.5112 65.5537 41.5112H77.0063C77.5047 41.5112 77.837 42.0007 77.6317 42.4337L74.9935 48.2322Z" fill="white" stroke="#001749" stroke-width="0.763889" stroke-miterlimit="10" stroke-linecap="round" stroke-linejoin="round"/>
<path d="M61.9325 58.0432H47.3988C43.7617 58.0432 40.8132 60.9917 40.8132 64.6288V78.1461C40.8132 81.7832 43.7617 84.7317 47.3988 84.7317H61.9325C65.5696 84.7317 68.518 81.7832 68.518 78.1461V64.6288C68.518 60.9917 65.5696 58.0432 61.9325 58.0432Z" fill="#001749" stroke="#001749" stroke-width="0.763889"/>
<path d="M60.9255 58.0432H46.3918C42.7547 58.0432 39.8062 60.9917 39.8062 64.6288V78.1461C39.8062 81.7832 42.7547 84.7317 46.3918 84.7317H60.9255C64.5626 84.7317 67.511 81.7832 67.511 78.1461V64.6288C67.511 60.9917 64.5626 58.0432 60.9255 58.0432Z" fill="#1C4396" stroke="#001749" stroke-width="0.763889"/>
<path d="M61.3865 63.6174H57.0612V78.4617H61.3865V63.6174Z" fill="white" stroke="#001749" stroke-width="0.763889"/>
<path d="M50.0542 73.5134H45.7289V78.4615H50.0542V73.5134Z" fill="white" stroke="#001749" stroke-width="0.763889"/>
<path d="M55.7203 68.5652H51.395V78.4617H55.7203V68.5652Z" fill="white" stroke="#001749" stroke-width="0.763889"/>
<path d="M108.042 29.3438H93.5081C89.871 29.3438 86.9225 32.2922 86.9225 35.9293V49.4466C86.9225 53.0837 89.871 56.0322 93.5081 56.0322H108.042C111.679 56.0322 114.627 53.0837 114.627 49.4466V35.9293C114.627 32.2922 111.679 29.3438 108.042 29.3438Z" fill="#001749" stroke="#001749" stroke-width="0.763889"/>
<path d="M107.034 29.3438H92.5007C88.8636 29.3438 85.9151 32.2922 85.9151 35.9293V49.4466C85.9151 53.0837 88.8636 56.0322 92.5007 56.0322H107.034C110.671 56.0322 113.62 53.0837 113.62 49.4466V35.9293C113.62 32.2922 110.671 29.3438 107.034 29.3438Z" fill="#1C4396" stroke="#001749" stroke-width="0.763889"/>
<path d="M108.521 43.9569C108.572 43.5979 108.604 43.2287 108.604 42.8597C108.604 42.4906 108.572 42.1215 108.521 41.7623L106.957 41.2237C106.812 40.725 106.605 40.2461 106.346 39.8073L107.061 38.3608C106.605 37.7723 106.056 37.2435 105.445 36.8047L103.944 37.493C103.488 37.2435 102.991 37.0441 102.473 36.9044L101.914 35.3982C101.541 35.3482 101.159 35.3184 100.775 35.3184C100.392 35.3184 100.009 35.3482 99.6355 35.3982L99.0769 36.9044C98.5594 37.0441 98.0619 37.2435 97.6064 37.493L96.1044 36.8047C95.4933 37.2435 94.9453 37.7723 94.4898 38.3608L95.204 39.8073C94.9453 40.2461 94.738 40.725 94.5929 41.2237L93.0288 41.7623C92.9773 42.1215 92.9467 42.4906 92.9467 42.8597C92.9467 43.2287 92.9773 43.5979 93.0288 43.9569L94.5929 44.4956C94.738 44.9943 94.9453 45.4732 95.204 45.9121L94.4898 47.3585C94.9453 47.9471 95.4933 48.4758 96.1044 48.9146L97.6064 48.2264C98.0619 48.4758 98.5594 48.6752 99.0769 48.8148L99.6355 50.3211C100.009 50.3711 100.392 50.401 100.775 50.401C101.159 50.401 101.541 50.3711 101.914 50.3211L102.473 48.8148C102.991 48.6752 103.488 48.4758 103.944 48.2264L105.445 48.9146C106.056 48.4758 106.605 47.9471 107.061 47.3585L106.346 45.9121C106.605 45.4732 106.812 44.9943 106.957 44.4956L108.521 43.9569ZM100.775 46.7999C98.5174 46.7999 96.685 45.0343 96.685 42.8597C96.685 40.6851 98.5174 38.9194 100.775 38.9194C103.032 38.9194 104.865 40.6851 104.865 42.8597C104.865 45.0343 103.032 46.7999 100.775 46.7999Z" fill="#F78400" stroke="#001749" stroke-width="0.763889" stroke-miterlimit="10"/>
<path d="M92.6704 58.0432H78.1367C74.4996 58.0432 71.5511 60.9917 71.5511 64.6288V78.1461C71.5511 81.7832 74.4996 84.7317 78.1367 84.7317H92.6704C96.3075 84.7317 99.256 81.7832 99.256 78.1461V64.6288C99.256 60.9917 96.3075 58.0432 92.6704 58.0432Z" fill="#001749" stroke="#001749" stroke-width="0.763889"/>
<path d="M91.664 58.0432H77.1303C73.4932 58.0432 70.5447 60.9917 70.5447 64.6288V78.1461C70.5447 81.7832 73.4932 84.7317 77.1303 84.7317H91.664C95.3011 84.7317 98.2496 81.7832 98.2496 78.1461V64.6288C98.2496 60.9917 95.3011 58.0432 91.664 58.0432Z" fill="white" stroke="#001749" stroke-width="0.763889"/>
<path d="M92.7453 71.4012C92.7453 75.5661 89.2409 78.9425 84.9173 78.9425C80.5937 78.9425 77.0884 75.5661 77.0884 71.4012C77.0884 67.2362 80.5937 63.8599 84.9173 63.8599C89.2409 63.8599 92.7453 67.2362 92.7453 71.4012ZM80.3684 71.4012C80.3684 73.8214 82.4051 75.7832 84.9173 75.7832C87.4295 75.7832 89.4663 73.8214 89.4663 71.4012C89.4663 68.9811 87.4295 67.0191 84.9173 67.0191C82.4051 67.0191 80.3684 68.9811 80.3684 71.4012Z" fill="#F78400" stroke="#001749" stroke-width="0.763889"/>
<path fill-rule="evenodd" clip-rule="evenodd" d="M84.7922 65.3134C84.8524 65.3119 84.9125 65.311 84.9727 65.311C85.0376 65.311 85.1016 65.312 85.1656 65.3138L85.1579 65.5749C85.0968 65.5731 85.0348 65.5722 84.9727 65.5722C84.9154 65.5722 84.8571 65.573 84.7999 65.5745L84.7922 65.3134ZM84.0751 65.371C84.1935 65.3551 84.3129 65.3423 84.4332 65.3326L84.4561 65.5929C84.3406 65.6022 84.226 65.6144 84.1133 65.6297L84.0751 65.371ZM85.5504 65.3358C85.6793 65.3468 85.8072 65.3615 85.9333 65.3799L85.8932 65.6382C85.7719 65.6206 85.6497 65.6065 85.5265 65.5959L85.5504 65.3358ZM83.3695 65.5056C83.485 65.4769 83.6025 65.4513 83.7209 65.4288L83.7734 65.685C83.6598 65.7065 83.548 65.7311 83.4373 65.7586L83.3695 65.5056ZM86.3133 65.4461C86.4394 65.4719 86.5644 65.5013 86.6876 65.5342L86.616 65.7859C86.4976 65.7545 86.3782 65.7262 86.257 65.7015L86.3133 65.4461ZM82.6829 65.7161C82.7956 65.6749 82.9083 65.6367 83.0238 65.6015L83.1059 65.8503C82.9961 65.884 82.8873 65.9207 82.7803 65.9601L82.6829 65.7161ZM87.0562 65.644C87.1784 65.6843 87.2987 65.728 87.4171 65.7751L87.314 66.0166C87.2004 65.9715 87.0848 65.9297 86.9684 65.891L87.0562 65.644ZM82.026 65.9998C82.1329 65.9467 82.2408 65.8964 82.3506 65.849L82.4614 66.0873C82.3564 66.1327 82.2532 66.1809 82.1511 66.2317L82.026 65.9998ZM87.7695 65.927C87.885 65.9812 87.9986 66.0385 88.1113 66.099L87.9786 66.3267C87.8707 66.2688 87.7618 66.2139 87.6511 66.162L87.7695 65.927ZM81.4063 66.3526C81.5065 66.2883 81.6078 66.2267 81.7118 66.1678L81.8493 66.3926C81.75 66.449 81.6526 66.508 81.5572 66.5696L81.4063 66.3526ZM88.4417 66.2905C88.5496 66.3576 88.6556 66.4277 88.7597 66.5008L88.5993 66.7115C88.4999 66.6415 88.3987 66.5744 88.2947 66.5101L88.4417 66.2905ZM80.8315 66.77C80.9231 66.6954 81.0177 66.6232 81.1131 66.5535L81.2764 66.762C81.1847 66.8288 81.095 66.8979 81.0071 66.9694L80.8315 66.77ZM89.0633 66.729C89.1626 66.808 89.2591 66.8898 89.3526 66.9742L89.1684 67.1651C89.0776 67.0842 88.985 67.0058 88.8905 66.9302L89.0633 66.729ZM90.2588 68.0518C90.2454 68.1228 90.1757 68.1702 90.1012 68.1577L88.9 67.953C88.8265 67.9404 88.7778 67.8727 88.7902 67.8017C88.8036 67.7307 88.8733 67.6833 88.9478 67.6958L90.0153 67.8777L90.2044 66.849C90.2168 66.778 90.2874 66.7306 90.361 66.7431C90.4355 66.7557 90.4842 66.8235 90.4708 66.8945L90.2588 68.0518ZM80.3091 67.2463C80.3913 67.1624 80.4762 67.0806 80.5631 67.0011L80.7503 67.1909C80.6663 67.267 80.5851 67.3454 80.5058 67.4259L80.3091 67.2463ZM89.6267 67.2358C89.7155 67.3255 89.8014 67.4178 89.8835 67.5126L89.6763 67.6808C89.5971 67.5901 89.515 67.5016 89.43 67.4156L89.6267 67.2358ZM79.8441 67.7759C79.9167 67.6836 79.9912 67.5932 80.0685 67.5049L80.2757 67.6735C80.2022 67.7581 80.1296 67.8447 80.0609 67.9332L79.8441 67.7759ZM79.444 68.3522C79.5052 68.2525 79.5691 68.1546 79.636 68.0587L79.8613 68.204C79.7973 68.2958 79.7362 68.3896 79.677 68.485L79.444 68.3522ZM79.1127 68.968C79.1624 68.8623 79.2139 68.7581 79.2693 68.6555L79.5099 68.7757C79.4574 68.8738 79.4078 68.9735 79.36 69.0748L79.1127 68.968ZM78.8559 69.6159C78.8931 69.5054 78.9322 69.3962 78.9752 69.2884L79.2282 69.3816C79.1872 69.4848 79.149 69.5894 79.1146 69.6952L78.8559 69.6159ZM78.6763 70.2876C78.7002 70.1738 78.7269 70.061 78.7565 69.9495L79.0191 70.0145C78.9905 70.1213 78.9647 70.2292 78.9427 70.3383L78.6763 70.2876ZM78.577 70.9741C78.5866 70.8584 78.6 70.7434 78.6171 70.6295L78.8854 70.6657C78.8692 70.7748 78.8568 70.8849 78.8473 70.9959L78.577 70.9741ZM78.5541 71.4941C78.5541 71.4361 78.5551 71.3781 78.557 71.3204L78.8282 71.3276C78.8262 71.3829 78.8253 71.4385 78.8253 71.4941C78.8253 71.5499 78.8262 71.6055 78.8282 71.6608L78.557 71.668C78.5551 71.6103 78.5541 71.5523 78.5541 71.4941ZM91.3913 71.4941C91.3913 71.5523 91.3913 71.6103 91.3894 71.668L91.1182 71.6608C91.1201 71.6055 91.121 71.5499 91.121 71.4941H91.3913ZM78.6171 72.3588C78.6 72.2449 78.5866 72.13 78.577 72.0142L78.8473 71.9925C78.8568 72.1034 78.8692 72.2135 78.8854 72.3226L78.6171 72.3588ZM91.3693 72.0142C91.3598 72.13 91.3464 72.2449 91.3292 72.3588L91.0609 72.3226C91.0771 72.2135 91.0895 72.1034 91.0991 71.9925L91.3693 72.0142ZM78.7565 73.0389C78.7269 72.9274 78.7002 72.8146 78.6763 72.7007L78.9427 72.6501C78.9647 72.7591 78.9905 72.867 79.0191 72.9739L78.7565 73.0389ZM91.27 72.7007C91.2461 72.8146 91.2194 72.9274 91.1898 73.0389L90.9272 72.9739C90.9559 72.867 90.9816 72.7591 91.0036 72.6501L91.27 72.7007ZM91.0905 73.3724C91.0532 73.4829 91.0141 73.5922 90.9711 73.6999L90.7181 73.6068C90.7591 73.5035 90.7964 73.399 90.8317 73.2932L91.0905 73.3724ZM78.9752 73.6999C78.9322 73.5922 78.8931 73.4829 78.8559 73.3724L79.1146 73.2932C79.149 73.399 79.1872 73.5035 79.2282 73.6068L78.9752 73.6999ZM79.2693 74.3328C79.2139 74.2303 79.1624 74.1261 79.1127 74.0204L79.36 73.9136C79.4078 74.0148 79.4574 74.1146 79.5099 74.2127L79.2693 74.3328ZM90.8336 74.0204C90.784 74.1261 90.7315 74.2303 90.677 74.3328L90.4364 74.2127C90.4889 74.1146 90.5386 74.0148 90.5863 73.9136L90.8336 74.0204ZM79.636 74.9297C79.5691 74.8338 79.5052 74.7359 79.444 74.6362L79.677 74.5033C79.7362 74.5988 79.7973 74.6925 79.8613 74.7844L79.636 74.9297ZM90.5023 74.6362C90.4412 74.7359 90.3772 74.8338 90.3104 74.9297L90.085 74.7844C90.149 74.6925 90.2101 74.5988 90.2693 74.5033L90.5023 74.6362ZM80.0685 75.4835C79.9912 75.3952 79.9167 75.3048 79.8441 75.2124L80.0609 75.0552C80.1296 75.1437 80.2022 75.2303 80.2757 75.3148L80.0685 75.4835ZM90.1022 75.2124C90.0296 75.3048 89.9552 75.3952 89.8769 75.4835L89.6706 75.3148C89.7441 75.2303 89.8157 75.1437 89.8854 75.0552L90.1022 75.2124ZM89.6372 75.7419C89.5551 75.826 89.4701 75.9078 89.3822 75.9872L89.196 75.7974C89.2801 75.7213 89.3612 75.643 89.4405 75.5625L89.6372 75.7419ZM80.5631 75.9872C80.4762 75.9078 80.3913 75.826 80.3091 75.7419L80.5058 75.5625C80.5851 75.643 80.6663 75.7213 80.7503 75.7974L80.5631 75.9872ZM89.1139 76.2184C89.0223 76.293 88.9287 76.3652 88.8332 76.4348L88.6699 76.2262C88.7616 76.1596 88.8513 76.0904 88.9392 76.0189L89.1139 76.2184ZM81.1131 76.4348C81.0177 76.3652 80.9231 76.293 80.8315 76.2184L81.0071 76.0189C81.095 76.0904 81.1847 76.1596 81.2764 76.2262L81.1131 76.4348ZM81.7118 76.8205C81.6078 76.7616 81.5065 76.7 81.4063 76.6358L81.5572 76.4187C81.6526 76.4802 81.75 76.5393 81.8493 76.5958L81.7118 76.8205ZM88.5391 76.6358C88.4398 76.7 88.3386 76.7616 88.2345 76.8205L88.097 76.5958C88.1963 76.5393 88.2937 76.4802 88.3882 76.4187L88.5391 76.6358ZM82.3506 77.1394C82.2408 77.0919 82.1329 77.0417 82.026 76.9886L82.1511 76.7567C82.2532 76.8075 82.3564 76.8556 82.4614 76.901L82.3506 77.1394ZM87.9194 76.9886C87.8134 77.0417 87.7055 77.0919 87.5957 77.1394L87.4849 76.901C87.59 76.8556 87.6931 76.8075 87.7953 76.7567L87.9194 76.9886ZM83.0238 77.3868C82.9083 77.3516 82.7956 77.3133 82.6829 77.2722L82.7803 77.0282C82.8873 77.0677 82.9961 77.1042 83.1059 77.1379L83.0238 77.3868ZM87.2625 77.2722C87.1507 77.3133 87.0381 77.3516 86.9225 77.3868L86.8404 77.1379C86.9502 77.1042 87.0591 77.0677 87.166 77.0282L87.2625 77.2722ZM83.7209 77.5596C83.6025 77.5371 83.485 77.5114 83.3695 77.4827L83.4373 77.2298C83.548 77.2573 83.6598 77.2818 83.7734 77.3034L83.7209 77.5596ZM86.5769 77.4827C86.4613 77.5114 86.3439 77.5371 86.2255 77.5596L86.1729 77.3034C86.2866 77.2818 86.3983 77.2573 86.5091 77.2298L86.5769 77.4827ZM84.4332 77.6558C84.3129 77.6461 84.1935 77.6332 84.0751 77.6173L84.1133 77.3586C84.226 77.3739 84.3406 77.3862 84.4561 77.3955L84.4332 77.6558ZM85.8703 77.6173C85.7528 77.6332 85.6335 77.6461 85.5131 77.6558L85.4902 77.3955C85.6058 77.3862 85.7194 77.3739 85.833 77.3586L85.8703 77.6173ZM84.9727 77.6772C84.9125 77.6772 84.8524 77.6765 84.7922 77.6749L84.7999 77.4138C84.8571 77.4153 84.9154 77.4161 84.9727 77.4161C85.0309 77.4161 85.0882 77.4153 85.1465 77.4138L85.1532 77.6749C85.094 77.6765 85.0338 77.6772 84.9727 77.6772Z" fill="white"/>
<path d="M46.5633 86.7429H32.0296C28.3925 86.7429 25.4441 89.6914 25.4441 93.3285V106.846C25.4441 110.483 28.3925 113.431 32.0296 113.431H46.5633C50.2004 113.431 53.1489 110.483 53.1489 106.846V93.3285C53.1489 89.6914 50.2004 86.7429 46.5633 86.7429Z" fill="#001749" stroke="#001749" stroke-width="0.763889"/>
<path d="M45.5563 86.7429H31.0226C27.3855 86.7429 24.4371 89.6914 24.4371 93.3285V106.846C24.4371 110.483 27.3855 113.431 31.0226 113.431H45.5563C49.1934 113.431 52.1419 110.483 52.1419 106.846V93.3285C52.1419 89.6914 49.1934 86.7429 45.5563 86.7429Z" fill="white" stroke="#001749" stroke-width="0.763889"/>
<path d="M38.5129 92.3677L38.5129 92.3677C35.959 92.3704 33.891 94.4429 33.8939 96.9968L33.9005 102.831C33.9034 105.385 35.9761 107.453 38.53 107.45L38.53 107.45C41.084 107.448 43.152 105.375 43.1491 102.821L43.1425 96.9871C43.1396 94.4332 41.0669 92.365 38.5129 92.3677Z" fill="#F78400" stroke="#001749" stroke-width="0.763889"/>
<path d="M40.3379 101.044C40.3311 99.9884 39.5047 99.7554 38.7162 99.5644L38.7037 97.6289C39.319 97.69 39.7338 98.0491 39.7377 98.6554L40.2101 98.6525C40.204 97.7139 39.4439 97.2852 38.7011 97.2241L38.6986 96.8345L38.3162 96.8364L38.3187 97.2269C37.4043 97.2966 36.868 97.8705 36.8723 98.5427C36.8785 99.5109 37.5999 99.7373 38.3359 99.9139L38.3496 102.038C37.6217 101.962 37.1688 101.503 37.1649 100.896L36.7075 100.898C36.7132 101.773 37.407 102.382 38.3523 102.457L38.3556 102.984L38.738 102.982L38.7347 102.454C39.7691 102.39 40.3426 101.78 40.3379 101.044ZM37.3298 98.5399C37.3268 98.092 37.6618 97.7005 38.3212 97.6308L38.3331 99.4661C37.7846 99.3104 37.3334 99.1109 37.3298 98.5399ZM38.732 102.042L38.719 100.012C39.3349 100.168 39.8687 100.374 39.8732 101.075C39.8766 101.61 39.4366 101.988 38.732 102.042Z" fill="white"/>
<path d="M77.3114 86.9016H62.7778C59.1407 86.9016 56.1922 89.8501 56.1922 93.4872V107.004C56.1922 110.642 59.1407 113.59 62.7778 113.59H77.3114C80.9486 113.59 83.897 110.642 83.897 107.004V93.4872C83.897 89.8501 80.9486 86.9016 77.3114 86.9016Z" fill="#001749" stroke="#001749" stroke-width="0.763889"/>
<path d="M76.3041 86.9016H61.7704C58.1333 86.9016 55.1848 89.8501 55.1848 93.4872V107.004C55.1848 110.642 58.1333 113.59 61.7704 113.59H76.3041C79.9412 113.59 82.8897 110.642 82.8897 107.004V93.4872C82.8897 89.8501 79.9412 86.9016 76.3041 86.9016Z" fill="#F78400" stroke="#001749" stroke-width="0.763889"/>
<path d="M69.3454 92.9395C66.1829 92.9395 63.6124 95.4154 63.6124 98.4624C63.6124 102.716 68.0831 107.002 69.1258 107.943C69.2471 108.049 69.4333 108.049 69.565 107.943C70.6087 107.002 75.0794 102.748 75.0794 98.4624C75.0794 95.4154 72.5089 92.9395 69.3454 92.9395ZM69.3454 101.225C67.7202 101.225 66.4025 99.9548 66.4025 98.3993C66.4025 96.8334 67.7202 95.5739 69.3349 95.5739C70.9601 95.5739 72.2673 96.8439 72.2673 98.3993C72.2787 99.9548 70.9715 101.225 69.3454 101.225Z" fill="white" stroke="#001749" stroke-width="0.763889" stroke-miterlimit="10"/>
<path d="M92.7793 0.644287H78.2456C74.6085 0.644287 71.66 3.59275 71.66 7.22986V20.7472C71.66 24.3843 74.6085 27.3328 78.2456 27.3328H92.7793C96.4164 27.3328 99.3648 24.3843 99.3648 20.7472V7.22986C99.3648 3.59275 96.4164 0.644287 92.7793 0.644287Z" fill="#001749" stroke="#001749" stroke-width="0.763889"/>
<path d="M91.7719 0.644287H77.2382C73.6011 0.644287 70.6526 3.59275 70.6526 7.22986V20.7472C70.6526 24.3843 73.6011 27.3328 77.2382 27.3328H91.7719C95.409 27.3328 98.3575 24.3843 98.3575 20.7472V7.22986C98.3575 3.59275 95.409 0.644287 91.7719 0.644287Z" fill="white" stroke="#001749" stroke-width="0.763889"/>
<path d="M87.8497 16.9328C87.398 16.7363 86.9263 16.586 86.4422 16.4842C86.5473 16.4463 86.6504 16.4049 86.7525 16.3605C87.6367 15.9708 88.3634 15.3109 88.8208 14.4823C89.2782 13.6539 89.4405 12.7031 89.2829 11.7766C89.1254 10.8501 88.6565 9.99937 87.949 9.35599C87.2405 8.71251 86.3334 8.31204 85.3661 8.21636C84.3988 8.12059 83.4268 8.33505 82.5979 8.82642C81.7701 9.31779 81.1322 10.0589 80.7837 10.9352C80.4342 11.8116 80.3941 12.7746 80.6682 13.6754C80.9422 14.5763 81.5151 15.365 82.2991 15.9198C82.322 15.9284 82.344 15.9384 82.3669 15.9462L82.3459 15.952C82.6657 16.1728 83.0143 16.3518 83.3828 16.4842C81.709 16.8275 80.2232 17.7539 79.2111 19.0869C78.1493 18.0211 77.435 16.678 77.1562 15.2239C76.8764 13.7698 77.0454 12.2686 77.6403 10.9059C78.2352 9.54333 79.2311 8.37916 80.5039 7.55751C81.7768 6.73583 83.2711 6.29276 84.8018 6.28312C86.3334 6.27347 87.8335 6.69767 89.1177 7.50317C90.4011 8.30879 91.4123 9.46026 92.0263 10.8153C92.6393 12.1703 92.8283 13.6693 92.5686 15.1268C92.3089 16.5843 91.6128 17.9362 90.5653 19.0154C89.8578 18.1098 88.9229 17.3931 87.8497 16.9328Z" stroke="#001749" stroke-width="0.763889" stroke-linecap="round" stroke-linejoin="round"/>
<path d="M84.7884 21.3653C83.7361 21.3551 82.6973 21.144 81.7309 20.7444C80.7656 20.3447 79.8928 19.7645 79.1652 19.0379C80.1898 17.7011 81.6937 16.772 83.3886 16.4278C83.0152 16.2951 82.6619 16.1156 82.3382 15.8941L82.3592 15.8883C82.3363 15.8804 82.3144 15.8704 82.2914 15.8618C81.4999 15.3058 80.9212 14.5159 80.6443 13.6139C80.3684 12.712 80.4104 11.7481 80.7627 10.871C81.116 9.99397 81.7605 9.25233 82.5979 8.76067C83.4344 8.26892 84.417 8.05445 85.3947 8.15023C86.3716 8.246 87.2882 8.64675 88.0034 9.29071C88.7196 9.93467 89.1932 10.7859 89.3526 11.7133C89.5131 12.6407 89.3488 13.5926 88.8876 14.4221C88.4255 15.2517 87.6921 15.913 86.7984 16.3038C86.6962 16.3482 86.5921 16.3898 86.4852 16.4278C86.975 16.5299 87.4525 16.6807 87.9098 16.8777C88.9955 17.3405 89.9399 18.06 90.6541 18.9683C89.9046 19.736 88.9955 20.3457 87.9853 20.7584C86.975 21.1711 85.8865 21.3778 84.7884 21.3653Z" fill="#F78400" stroke="#001749" stroke-width="0.763889" stroke-linecap="round" stroke-linejoin="round"/>
<path d="M130.151 48.2842H115.617C111.98 48.2842 109.031 51.2326 109.031 54.8698V68.3871C109.031 72.0242 111.98 74.9726 115.617 74.9726H130.151C133.788 74.9726 136.736 72.0242 136.736 68.3871V54.8698C136.736 51.2326 133.788 48.2842 130.151 48.2842Z" fill="#001749" stroke="#001749" stroke-width="0.763889"/>
<path d="M129.142 48.2842H114.609C110.971 48.2842 108.023 51.2326 108.023 54.8698V68.3871C108.023 72.0242 110.971 74.9726 114.609 74.9726H129.142C132.779 74.9726 135.728 72.0242 135.728 68.3871V54.8698C135.728 51.2326 132.779 48.2842 129.142 48.2842Z" fill="#F78400" stroke="#001749" stroke-width="0.763889"/>
<path fill-rule="evenodd" clip-rule="evenodd" d="M124.816 54.3979H119.194V59.2313H114.177V64.6471H119.194V69.4806H124.816V64.6471H129.834V59.2313H124.816V54.3979Z" fill="white"/>
<path d="M119.194 54.3978V54.0159H118.812V54.3978H119.194ZM124.816 54.3978H125.198V54.0159H124.816V54.3978ZM119.194 59.2311V59.6131H119.576V59.2311H119.194ZM114.177 59.2311V58.8492H113.795V59.2311H114.177ZM114.177 64.647H113.795V65.0289H114.177V64.647ZM119.194 64.647H119.576V64.2651H119.194V64.647ZM119.194 69.4804H118.812V69.8624H119.194V69.4804ZM124.816 69.4804V69.8624H125.198V69.4804H124.816ZM124.816 64.647V64.2651H124.434V64.647H124.816ZM129.834 64.647V65.0289H130.216V64.647H129.834ZM129.834 59.2311H130.216V58.8492H129.834V59.2311ZM124.816 59.2311H124.434V59.6131H124.816V59.2311ZM119.194 54.7798H124.816V54.0159H119.194V54.7798ZM119.576 59.2311V54.3978H118.812V59.2311H119.576ZM114.177 59.6131H119.194V58.8492H114.177V59.6131ZM114.559 64.647V59.2311H113.795V64.647H114.559ZM119.194 64.2651H114.177V65.0289H119.194V64.2651ZM119.576 69.4804V64.647H118.812V69.4804H119.576ZM124.816 69.0985H119.194V69.8624H124.816V69.0985ZM124.434 64.647V69.4804H125.198V64.647H124.434ZM129.834 64.2651H124.816V65.0289H129.834V64.2651ZM129.452 59.2311V64.647H130.216V59.2311H129.452ZM124.816 59.6131H129.834V58.8492H124.816V59.6131ZM124.434 54.3978V59.2311H125.198V54.3978H124.434Z" fill="#001749"/>
<path d="M132.288 64.5786L144.707 48.4556L145.987 55.3991L154.977 50.9755L156.774 54.5663L147.78 59.0353L152.788 64.2851L132.288 64.5786Z" fill="#FBE62E" stroke="#001749" stroke-width="0.763889" stroke-linejoin="round"/>
<path d="M133.548 113.436C140.715 113.436 146.525 107.627 146.525 100.46C146.525 93.2932 140.715 87.4834 133.548 87.4834H100.343C93.1764 87.4834 87.3666 93.2932 87.3666 100.46C87.3666 107.627 93.1764 113.436 100.343 113.436H133.548Z" fill="#001749" stroke="#001749" stroke-width="0.763889"/>
<path d="M132.786 112.702C139.952 112.702 145.762 106.892 145.762 99.7252C145.762 92.5585 139.952 86.7488 132.786 86.7488H99.4652C92.2985 86.7488 86.4887 92.5585 86.4887 99.7252C86.4887 106.892 92.2985 112.702 99.4652 112.702H132.786Z" fill="#1C4396" stroke="#001749" stroke-width="0.763889"/>
<path d="M137.1 110.317C130.944 112.77 123.888 109.95 121.342 104.02C118.796 98.089 121.722 91.2929 127.878 88.84C134.035 86.3869 141.09 89.2061 143.636 95.1366C146.183 101.067 143.256 107.864 137.1 110.317Z" fill="#F78400" stroke="#001749" stroke-width="0.763889"/>
<path d="M132.489 107.404C136.975 107.404 140.612 103.9 140.612 99.5787C140.612 95.2561 136.975 91.7527 132.489 91.7527C128.003 91.7527 124.365 95.2561 124.365 99.5787C124.365 103.9 128.003 107.404 132.489 107.404Z" fill="white" stroke="#001749" stroke-width="0.763889" stroke-miterlimit="10"/>
<path d="M132.543 91.7527L132.462 107.404" stroke="#001749" stroke-width="0.763889" stroke-miterlimit="10" stroke-linejoin="round"/>
<path d="M132.544 91.7527C126.795 94.5273 126.753 104.551 132.459 107.404" stroke="#001749" stroke-width="0.763889" stroke-miterlimit="10" stroke-linejoin="round"/>
<path d="M132.427 91.7527C138.177 94.5273 138.219 104.551 132.512 107.404" stroke="#001749" stroke-width="0.763889" stroke-miterlimit="10" stroke-linejoin="round"/>
<path d="M140.612 99.6312L124.365 99.5261" stroke="#001749" stroke-width="0.763889" stroke-miterlimit="10" stroke-linejoin="round"/>
<path d="M124.88 102.353L140.204 102.431" stroke="#001749" stroke-width="0.763889" stroke-miterlimit="10" stroke-linejoin="round"/>
<path d="M126.782 105.153L138.166 105.231" stroke="#001749" stroke-width="0.763889" stroke-miterlimit="10" stroke-linejoin="round"/>
<path d="M124.908 96.7522L140.231 96.8305" stroke="#001749" stroke-width="0.763889" stroke-miterlimit="10" stroke-linejoin="round"/>
<path d="M126.864 93.9517L138.248 94.03" stroke="#001749" stroke-width="0.763889" stroke-miterlimit="10" stroke-linejoin="round"/>
</svg>
