<svg width="179" height="148" viewBox="0 0 179 148" fill="none" xmlns="http://www.w3.org/2000/svg">
<path fill-rule="evenodd" clip-rule="evenodd" d="M59.341 4.74536L34.6038 4.91806L35.0149 41.0851L59.7525 40.9123L59.341 4.74536ZM57.6241 6.4872L58.0108 39.1946L36.7327 39.3431L36.3456 6.63578L57.6241 6.4872Z" fill="#FBE62E" stroke="#06122C" stroke-width="0.763889" stroke-miterlimit="10"/>
<path d="M34.5749 136.101L22.318 136.187L22.3286 137.706C22.3447 140.008 24.2265 141.863 26.5288 141.847L30.4435 141.82C32.7458 141.804 34.6016 139.922 34.5855 137.62L34.5749 136.101Z" fill="#FBE62E" stroke="#06122C" stroke-width="0.763889" stroke-miterlimit="10"/>
<path d="M18.6779 136.211L6.42104 136.297L6.43164 137.817C6.44777 140.119 8.32961 141.975 10.6319 141.959L14.5466 141.931C16.8489 141.915 18.7047 140.033 18.6885 137.731L18.6779 136.211Z" fill="#FBE62E" stroke="#06122C" stroke-width="0.763889" stroke-miterlimit="10"/>
<path d="M83.3977 135.76L71.1411 135.845L71.1516 137.365C71.1679 139.667 73.049 141.522 75.3521 141.506L79.2661 141.479C81.5682 141.463 83.4245 139.581 83.4082 137.279L83.3977 135.76Z" fill="#FBE62E" stroke="#06122C" stroke-width="0.763889" stroke-miterlimit="10"/>
<path d="M34.9796 32.8977L8.85794 33.0801C4.48649 33.1106 0.959998 36.6867 0.990554 41.0581L1.61427 130.403C1.64482 134.774 5.22087 138.301 9.59232 138.27L35.714 138.088L34.9796 32.8977Z" fill="#FBE62E" stroke="#06122C" stroke-width="0.763889" stroke-miterlimit="10"/>
<path d="M67.0849 135.875L54.8283 135.96L54.8388 137.48C54.855 139.782 56.7371 141.638 59.0392 141.622L62.9532 141.594C65.2554 141.579 67.1116 139.697 67.0954 137.395L67.0849 135.875Z" fill="#FBE62E" stroke="#06122C" stroke-width="0.763889" stroke-miterlimit="10"/>
<path d="M26.7348 32.9557L78.1346 32.5969C82.5097 32.5663 86.0819 36.0887 86.1124 40.4643L86.7359 129.809C86.7665 134.184 83.244 137.756 78.8688 137.787L27.4691 138.146C23.0936 138.177 19.5216 134.654 19.4911 130.279L18.8674 40.9338C18.8368 36.5581 22.3592 32.9863 26.7348 32.9557Z" fill="#9BCDFB" stroke="#06122C" stroke-width="0.763889" stroke-miterlimit="10"/>
<path d="M77.3392 146.002C75.0943 146.017 73.2619 144.21 73.2466 141.965C73.2304 139.722 75.037 137.889 77.2819 137.873C79.5267 137.858 81.3591 139.664 81.3744 141.909C81.3906 144.154 79.5831 145.986 77.3392 146.002Z" fill="#06122C" stroke="#06122C" stroke-width="0.763889" stroke-miterlimit="10"/>
<path d="M61.032 146.116C58.7871 146.131 56.9548 144.325 56.9385 142.08C56.9233 139.835 58.7299 138.003 60.9747 137.987C63.2196 137.971 65.052 139.779 65.0673 142.023C65.0835 144.268 63.276 146.1 61.032 146.116Z" fill="#06122C" stroke="#06122C" stroke-width="0.763889" stroke-miterlimit="10"/>
<path d="M28.514 146.342C26.2694 146.358 24.4371 144.551 24.4214 142.306C24.4058 140.061 26.2127 138.229 28.4573 138.214C30.7019 138.197 32.5343 140.005 32.5499 142.249C32.5656 144.494 30.7587 146.326 28.514 146.342Z" fill="#06122C" stroke="#06122C" stroke-width="0.763889" stroke-miterlimit="10"/>
<path d="M12.2068 146.456C9.96223 146.472 8.12985 144.665 8.11419 142.421C8.09853 140.176 9.90541 138.344 12.1501 138.327C14.3947 138.312 16.2271 140.119 16.2427 142.364C16.2584 144.609 14.4514 146.441 12.2068 146.456Z" fill="#06122C" stroke="#06122C" stroke-width="0.763889" stroke-miterlimit="10"/>
<path d="M35.0671 1.36929L59.2732 1.20029C61.2889 1.18622 62.9341 2.80858 62.9475 4.82392C62.9618 6.83927 61.3395 8.4844 59.3238 8.49853L35.118 8.66754C33.1026 8.68157 31.4575 7.05917 31.4434 5.04387C31.4293 3.02852 33.0516 1.38335 35.0671 1.36929Z" fill="#9BCDFB" stroke="#06122C" stroke-width="0.763889" stroke-miterlimit="10"/>
<path d="M76.6335 45.7974L77.1835 124.628" stroke="#06122C" stroke-width="0.763889" stroke-miterlimit="10"/>
<path d="M61.1266 45.9062L61.6766 124.737" stroke="#06122C" stroke-width="0.763889" stroke-miterlimit="10"/>
<path d="M45.6225 46.0142L46.1734 124.845" stroke="#06122C" stroke-width="0.763889" stroke-miterlimit="10"/>
<path d="M30.112 46.1226L30.6624 124.954" stroke="#06122C" stroke-width="0.763889" stroke-miterlimit="10"/>
<path d="M9.30653 46.2664L9.85692 125.097" stroke="#06122C" stroke-width="0.763889" stroke-miterlimit="10"/>
<path d="M172.015 66.9667L77.0259 67.6298C74.1222 67.6501 71.7847 70.0208 71.8048 72.9248L72.2841 141.672C72.3051 144.576 74.6751 146.915 77.5798 146.894L172.567 146.231C175.472 146.211 177.81 143.84 177.79 140.936L177.309 72.1883C177.289 69.2842 174.918 66.9464 172.015 66.9667Z" fill="#FBE62E" stroke="#06122C" stroke-width="0.763889" stroke-miterlimit="10"/>
<path d="M163.216 67.0285L68.2269 67.6916C65.3232 67.7118 62.9857 70.0826 63.0057 72.9866L63.486 141.734C63.5061 144.638 65.877 146.976 68.7807 146.956L163.768 146.293C166.673 146.272 169.011 143.902 168.991 140.997L168.51 72.25C168.49 69.346 166.119 67.0082 163.216 67.0285Z" fill="#FBE62E" stroke="#06122C" stroke-width="0.763889" stroke-miterlimit="10"/>
<path d="M71.2595 87.9852L116.018 114.203L160.464 87.2947" stroke="#06122C" stroke-width="0.763889" stroke-linecap="round" stroke-linejoin="round"/>
<path d="M118.398 46.5287C117.363 46.367 116.318 46.2865 115.271 46.2881C109.682 46.3272 104.337 48.585 100.411 52.565C96.487 56.545 94.3042 61.9212 94.3433 67.5108L101.566 67.4603C101.54 63.7863 102.975 60.2527 105.555 57.6366C108.134 55.0206 111.648 53.5365 115.322 53.5109C116.374 53.5064 117.423 53.6241 118.449 53.8616C121.505 54.5412 124.241 56.2366 126.21 58.6713C128.179 61.1059 129.264 64.1359 129.288 67.2668L136.52 67.2164C136.481 62.168 134.631 57.3016 131.304 53.5041C127.977 49.7066 123.397 47.231 118.398 46.5287Z" fill="#FBE62E" stroke="#06122C" stroke-width="0.763889" stroke-miterlimit="10"/>
<path d="M120.035 104.503L111.922 104.561C111.202 104.566 110.623 105.154 110.628 105.874L110.719 118.939C110.724 119.659 111.312 120.239 112.032 120.234L120.144 120.177C120.865 120.172 121.444 119.585 121.438 118.864L121.348 105.798C121.343 105.078 120.755 104.499 120.035 104.503Z" fill="#F5E644" stroke="#06122C" stroke-width="0.763889" stroke-linecap="round" stroke-linejoin="round"/>
<path d="M172.015 66.9669L77.0259 67.6301C74.1222 67.6503 71.7847 70.021 71.8048 72.9251L72.2841 141.672C72.3051 144.577 74.6751 146.915 77.5798 146.895L172.567 146.231C175.472 146.211 177.81 143.84 177.79 140.936L177.309 72.1885C177.289 69.2844 174.918 66.9466 172.015 66.9669Z" fill="#FBE62E" stroke="#06122C" stroke-width="0.763889" stroke-miterlimit="10"/>
<path d="M163.216 67.0287L68.2269 67.6919C65.3232 67.7121 62.9857 70.0827 63.0057 72.9868L63.486 141.734C63.5061 144.638 65.877 146.977 68.7807 146.956L163.768 146.293C166.673 146.273 169.011 143.902 168.991 140.997L168.51 72.2503C168.49 69.3461 166.119 67.0084 163.216 67.0287Z" fill="#FBE62E" stroke="#06122C" stroke-width="0.763889" stroke-miterlimit="10"/>
<path d="M71.2595 87.9854L116.018 114.203L160.464 87.2949" stroke="#06122C" stroke-width="0.763889" stroke-linecap="round" stroke-linejoin="round"/>
<path d="M118.398 46.5287C117.363 46.367 116.318 46.2865 115.271 46.2881C109.682 46.3272 104.337 48.585 100.411 52.565C96.487 56.545 94.3042 61.9212 94.3433 67.5108L101.566 67.4603C101.54 63.7863 102.975 60.2527 105.555 57.6366C108.134 55.0206 111.648 53.5365 115.322 53.5109C116.374 53.5064 117.423 53.6241 118.449 53.8616C121.505 54.5412 124.241 56.2366 126.21 58.6713C128.179 61.1059 129.264 64.1359 129.288 67.2668L136.52 67.2164C136.481 62.168 134.631 57.3016 131.304 53.5041C127.977 49.7066 123.397 47.231 118.398 46.5287Z" fill="#FBE62E" stroke="#06122C" stroke-width="0.763889" stroke-miterlimit="10"/>
<path d="M120.035 104.504L111.922 104.561C111.202 104.566 110.623 105.154 110.628 105.874L110.719 118.939C110.724 119.659 111.312 120.239 112.032 120.234L120.144 120.178C120.865 120.172 121.444 119.585 121.438 118.865L121.348 105.799C121.343 105.078 120.755 104.499 120.035 104.504Z" fill="#F78400" stroke="#06122C" stroke-width="0.763889" stroke-linecap="round" stroke-linejoin="round"/>
<path d="M80.1665 81.2284L38.7255 81.5177C36.148 81.5358 34.0729 83.6337 34.0908 86.2037L34.4811 142.111C34.499 144.681 36.6032 146.75 39.181 146.732L80.622 146.443C83.1991 146.425 85.275 144.327 85.2569 141.757L84.8663 85.8492C84.8482 83.2792 82.7437 81.2104 80.1665 81.2284Z" fill="#9BCDFB" stroke="#06122C" stroke-width="0.763889" stroke-linecap="round" stroke-linejoin="round"/>
<path d="M75.7703 81.2591L34.33 81.5485C31.7523 81.5665 29.6772 83.6644 29.6951 86.2345L30.0854 142.142C30.1033 144.713 32.2075 146.781 34.7854 146.763L76.2258 146.473C78.8039 146.455 80.8788 144.357 80.8607 141.788L80.4701 85.88C80.453 83.31 78.3484 81.2412 75.7703 81.2591Z" fill="#E9F1FF" stroke="#06122C" stroke-width="0.763889" stroke-linecap="round" stroke-linejoin="round"/>
<path d="M36.7774 138.169L36.8107 142.944" stroke="#06122C" stroke-width="0.763889" stroke-linecap="round" stroke-linejoin="round"/>
<path d="M36.3821 81.5342L36.7223 130.273L36.7469 133.798" fill="white"/>
<path d="M36.3821 81.5342L36.7223 130.273L36.7469 133.798" stroke="#06122C" stroke-width="0.763889" stroke-linecap="round" stroke-linejoin="round"/>
<path d="M58.0443 126.821C64.7292 126.775 70.1118 121.334 70.065 114.668C70.0182 108.003 64.5612 102.638 57.8752 102.684C51.1903 102.73 45.8077 108.172 45.8545 114.837C45.9013 121.503 51.3583 126.868 58.0443 126.821Z" stroke="#06122C" stroke-width="0.763889" stroke-linecap="round" stroke-linejoin="round"/>
<path d="M45.8392 114.838L70.066 114.669" stroke="#06122C" stroke-width="0.763889" stroke-linecap="round" stroke-linejoin="round"/>
<path d="M57.8772 102.683L58.0462 126.821" stroke="#06122C" stroke-width="0.763889" stroke-linecap="round" stroke-linejoin="round"/>
<path d="M58.0414 126.807L57.9631 126.808L57.5334 126.463C55.8347 125.146 54.4502 123.469 53.4791 121.553C51.8902 118.499 51.4108 114.99 52.1222 111.623C52.8345 108.256 54.6946 105.238 57.3854 103.083L57.8103 102.749L57.8896 102.748" stroke="#06122C" stroke-width="0.763889" stroke-linecap="round" stroke-linejoin="round"/>
<path d="M58.3756 126.803H58.4711C60.2347 125.47 61.6871 123.769 62.724 121.819C64.4132 118.641 64.8964 114.963 64.0838 111.459C63.2721 107.955 61.2192 104.861 58.303 102.745H58.2076" stroke="#06122C" stroke-width="0.763889" stroke-linecap="round" stroke-linejoin="round"/>
<path d="M65.9792 105.69C64.967 106.508 63.8345 107.165 62.6219 107.638C61.1113 108.23 59.5042 108.541 57.881 108.555C54.9496 108.583 52.0926 107.637 49.7599 105.866" stroke="#06122C" stroke-width="0.763889" stroke-linecap="round" stroke-linejoin="round"/>
<path d="M49.8573 123.726C51.0881 122.763 52.4822 122.026 53.9718 121.551C55.2465 121.129 56.5805 120.912 57.9239 120.908C59.5482 120.905 61.159 121.198 62.6773 121.774C63.8966 122.23 65.0377 122.872 66.0613 123.675" stroke="#06122C" stroke-width="0.763889" stroke-linecap="round" stroke-linejoin="round"/>
<path d="M148.186 33.4318L150.167 31.0271C151.823 28.9193 154.668 28.1136 157.183 29.0395L160.131 30.0477L157.726 28.0662C155.619 26.4103 154.813 23.5663 155.739 21.0509L156.747 18.1025L154.766 20.5074C153.11 22.615 150.266 23.4207 147.751 22.4948L144.802 21.4867L147.206 23.4681C149.315 25.124 150.121 27.9681 149.194 30.4835L148.186 33.4318Z" fill="white" stroke="#06122C" stroke-width="0.763889" stroke-miterlimit="10" stroke-linejoin="round"/>
</svg>
